<svg id="Layer_7" data-name="Layer 7" xmlns="http://www.w3.org/2000/svg" viewBox="0 0 913.21 256"><defs><style>.cls-1{fill:#fff;}.cls-2{fill:#fece64;}.cls-3{fill:#68bcb9;}.cls-4{fill:#047b9b;}.cls-5{fill:none;}</style></defs><title>icon_epi2me_light</title><path id="path4852" class="cls-1" d="M301.53,78.27h80v9.65H312v34h67v9.65H312v37.63h70.68v9.65H301.53Z"/><path id="path4864" class="cls-1" d="M398,78.27h54.24a39.23,39.23,0,0,1,11.54,1.6,26.81,26.81,0,0,1,9.64,5.06,23.87,23.87,0,0,1,6.64,9,34.27,34.27,0,0,1,2.53,13.3,27,27,0,0,1-9,21.82,39.38,39.38,0,0,1-25.94,7.59H408.57v42.18H398ZM408.42,127h40.16A24.27,24.27,0,0,0,466,121.91,20.1,20.1,0,0,0,471,107.37a18.09,18.09,0,0,0-5.37-15,23.55,23.55,0,0,0-15-4.43H408.26V127Z"/><path id="path4866" class="cls-1" d="M496.48,78.27h10.44V178.83H496.48Z"/><path id="path4878" class="cls-1" d="M603.85,178.83H525a45.57,45.57,0,0,1,2-9.8,33.67,33.67,0,0,1,5.06-9.17,54.91,54.91,0,0,1,10.6-10.28,115.69,115.69,0,0,1,18-11.23q9.74-5,15.18-8.51A51.34,51.34,0,0,0,585,123a20.75,20.75,0,0,0,5.22-7.28,22.39,22.39,0,0,0,1.59-9,19.73,19.73,0,0,0-6.8-16.45,29.77,29.77,0,0,0-19-5.53A37.85,37.85,0,0,0,552.33,87a21.14,21.14,0,0,0-8.7,6.17,25.21,25.21,0,0,0-4.43,8.69,52.46,52.46,0,0,0-1.42,10.44H527a35,35,0,0,1,10.28-27.67,43.07,43.07,0,0,1,28.93-8.85,48,48,0,0,1,16.92,2.68,29.18,29.18,0,0,1,11.39,7.12,27.48,27.48,0,0,1,6.17,10,34.45,34.45,0,0,1,1.9,11.38,30.5,30.5,0,0,1-1.9,11.23,25.77,25.77,0,0,1-5.22,8.51,38.1,38.1,0,0,1-7.59,6.64c-2.85,1.9-6.33,4-10.43,6.33-7.91,4.26-14.08,7.75-18.34,10.28-4.43,2.69-8.07,4.9-10.91,7a30.32,30.32,0,0,0-6.48,5.85,20.32,20.32,0,0,0-3.32,6h65.44Z"/><path id="path4882" class="cls-1" d="M726.38,78.27h14.71V178.83H730.64V92h-.32l-44.25,86.8h-9.64l-44.12-87H632v87H621.56V78.27h15.18l44.75,87.44Z"/><path id="path4886" class="cls-1" d="M757.54,78.27h80v9.65H768v34h67v9.65H768v37.63h70.68v9.65H757.54Z"/><path id="path4898" class="cls-2" d="M148.48,155.59H82.22a7.77,7.77,0,0,1-7.75-7.75V109.42a7.77,7.77,0,0,1,7.75-7.75h66.26a7.75,7.75,0,0,1,7.74,7.75v38.27a7.79,7.79,0,0,1-7.68,7.9h-.06"/><path id="path4902" class="cls-3" d="M211.24,81.75h-129A7.77,7.77,0,0,1,74.47,74V35.58a7.77,7.77,0,0,1,7.75-7.75h129A7.76,7.76,0,0,1,219,35.58V74a7.76,7.76,0,0,1-7.75,7.75"/><path id="path4906" class="cls-4" d="M211.24,229.43h-129a7.77,7.77,0,0,1-7.75-7.75V183.26a7.78,7.78,0,0,1,7.75-7.75h129a7.76,7.76,0,0,1,7.75,7.75v38.42a7.76,7.76,0,0,1-7.75,7.75"/><path id="rect10801" class="cls-5" d="M0,0H913.1a.42.42,0,0,1,.47.36.24.24,0,0,1,0,.12v255a.43.43,0,0,1-.36.48H0a.42.42,0,0,1-.47-.36.24.24,0,0,1,0-.12V.48A.43.43,0,0,1-.11,0Z"/></svg>