<svg xmlns="http://www.w3.org/2000/svg" viewBox="0 0 913.21 255.99"><defs><style>.cls-1{fill:#676c72;}.cls-2{fill:#fece64;}.cls-3{fill:#68bcb9;}.cls-4{fill:#047b9b;}.cls-5{fill:none;}</style></defs><title>icon_epi2me_dark</title><g id="Layer_6" data-name="Layer 6"><path id="path4852" class="cls-1" d="M301.53,78.27h80v9.64H312v34h67v9.64H312v37.64h70.68v9.65H301.53Z"/><path id="path4864" class="cls-1" d="M398,78.27h54.24a39.22,39.22,0,0,1,11.54,1.59,27,27,0,0,1,9.64,5.06,23.9,23.9,0,0,1,6.64,9,34.24,34.24,0,0,1,2.53,13.3,26.92,26.92,0,0,1-9,21.81,39.27,39.27,0,0,1-25.94,7.59H408.57v42.19H398ZM408.42,127h40.16A24.31,24.31,0,0,0,466,121.91,20.11,20.11,0,0,0,471,107.36a18.1,18.1,0,0,0-5.37-15,23.67,23.67,0,0,0-15-4.43H408.26V127Z"/><path id="path4866" class="cls-1" d="M496.48,78.27h10.44V178.83H496.48Z"/><path id="path4878" class="cls-1" d="M603.85,178.83H525a45.53,45.53,0,0,1,2-9.81,33.82,33.82,0,0,1,5.06-9.17,55.21,55.21,0,0,1,10.6-10.28,117.21,117.21,0,0,1,18-11.23q9.74-5,15.18-8.51A51.34,51.34,0,0,0,585,123a20.72,20.72,0,0,0,5.22-7.27,22.41,22.41,0,0,0,1.59-9,19.71,19.71,0,0,0-6.8-16.44,29.83,29.83,0,0,0-19-5.54A38.07,38.07,0,0,0,552.33,87a21.14,21.14,0,0,0-8.7,6.17,25.21,25.21,0,0,0-4.43,8.69,52.47,52.47,0,0,0-1.42,10.43H527a35,35,0,0,1,10.28-27.66,43.08,43.08,0,0,1,28.93-8.86,48.19,48.19,0,0,1,16.92,2.69,29.16,29.16,0,0,1,11.39,7.11,27.57,27.57,0,0,1,6.17,10,34.47,34.47,0,0,1,1.9,11.39,30.5,30.5,0,0,1-1.9,11.23,25.77,25.77,0,0,1-5.22,8.51,38.42,38.42,0,0,1-7.59,6.64c-2.85,1.9-6.33,3.95-10.43,6.33-7.91,4.25-14.08,7.74-18.34,10.28-4.43,2.68-8.07,4.9-10.91,7a29.8,29.8,0,0,0-6.48,5.85,20.32,20.32,0,0,0-3.32,6h65.44Z"/><path id="path4882" class="cls-1" d="M726.38,78.27h14.71V178.83H730.64V92h-.32l-44.25,86.81h-9.64l-44.12-87H632v87H621.56V78.27h15.18l44.75,87.43Z"/><path id="path4886" class="cls-1" d="M757.54,78.27h80v9.64H768v34h67v9.64H768v37.64h70.68v9.65H757.54Z"/><path id="path4898" class="cls-2" d="M148.48,155.58H82.22a7.76,7.76,0,0,1-7.75-7.74V109.42a7.76,7.76,0,0,1,7.75-7.75h66.26a7.75,7.75,0,0,1,7.74,7.75v38.26a7.8,7.8,0,0,1-7.68,7.91h-.06"/><path id="path4902" class="cls-3" d="M211.24,81.74h-129A7.76,7.76,0,0,1,74.47,74V35.57a7.76,7.76,0,0,1,7.75-7.74h129A7.75,7.75,0,0,1,219,35.57V74a7.75,7.75,0,0,1-7.75,7.74"/><path id="path4906" class="cls-4" d="M211.24,229.43h-129a7.78,7.78,0,0,1-7.75-7.75V183.26a7.77,7.77,0,0,1,7.75-7.75h129a7.76,7.76,0,0,1,7.75,7.75v38.42a7.76,7.76,0,0,1-7.75,7.75"/><path id="rect10801" class="cls-5" d="M0,0H913.1a.42.42,0,0,1,.47.36.2.2,0,0,1,0,.11V255.52a.41.41,0,0,1-.36.47H0a.42.42,0,0,1-.47-.36.21.21,0,0,1,0-.11V.47A.41.41,0,0,1-.11,0Z"/></g></svg>