<svg xmlns="http://www.w3.org/2000/svg" viewBox="0 0 960 540"><defs><style>.cls-1{fill:#333;}.cls-2{fill:#007ba6;}.cls-3{fill:#69bcb8;}.cls-4{fill:#fece63;}.cls-5{fill:#fff;}</style></defs><title>icon_metrichor_splash</title><g id="Layer_2" data-name="Layer 2"><rect class="cls-1" width="960" height="540"/><path class="cls-2" d="M339.37,284.09a3.36,3.36,0,0,0-4.07-3.95,86.09,86.09,0,0,1-19,2.11,83.07,83.07,0,0,1-18.45-2.11,3.36,3.36,0,0,0-4.08,3.95c2.21,11,11.21,18,22.79,18s20.58-7,22.79-18"/><path class="cls-3" d="M338,269.36a71.88,71.88,0,0,0-4.3-9.63,3.36,3.36,0,0,0-3.63-1.71,70,70,0,0,1-13.77,1.22A66.1,66.1,0,0,1,303,258.07a3.36,3.36,0,0,0-3.63,1.71,72,72,0,0,0-4.26,9.56,3.37,3.37,0,0,0,2.23,4.36,73,73,0,0,0,18.94,2.43,75.69,75.69,0,0,0,19.46-2.41,3.36,3.36,0,0,0,2.24-4.36"/><path class="cls-4" d="M324,252.76a3.35,3.35,0,0,0,2.44-5.2c-5.15-7.69-9.81-13.35-9.81-13.35h0s-4.67,5.68-9.84,13.4a3.35,3.35,0,0,0,2.45,5.2c2.1.2,4.43.31,7.12.31a75.09,75.09,0,0,0,7.64-.36"/><polygon class="cls-5" points="401.23 239.22 406.08 239.22 406.08 272.22 402.66 272.22 402.66 243.71 402.57 243.71 388.01 272.22 384.87 272.22 370.36 243.66 370.26 243.66 370.26 272.22 366.84 272.22 366.84 239.22 371.83 239.22 386.53 267.92 401.23 239.22"/><polygon class="cls-5" points="413.33 239.22 439.58 239.22 439.58 242.37 416.75 242.37 416.75 253.55 438.75 253.55 438.75 256.69 416.75 256.69 416.75 269.08 439.95 269.08 439.95 272.22 413.33 272.22 413.33 239.22"/><polygon class="cls-5" points="455.56 242.37 442.62 242.37 442.62 239.22 471.92 239.22 471.92 242.37 458.98 242.37 458.98 272.22 455.56 272.22 455.56 242.37"/><path class="cls-5" d="M475.43,239.22h18a18.63,18.63,0,0,1,4.16.44,9.94,9.94,0,0,1,3.37,1.46,7.06,7.06,0,0,1,2.33,2.77,9.64,9.64,0,0,1,.86,4.25,8.21,8.21,0,0,1-1.69,5,7.89,7.89,0,0,1-4.78,3v.09q3.33.51,4.5,2.63a15.3,15.3,0,0,1,1.37,6.52c0,.59.07,1.23.11,1.92s.12,1.39.21,2.1a12.24,12.24,0,0,0,.35,1.8,2.41,2.41,0,0,0,.48,1H501a4.91,4.91,0,0,1-.62-2.2,44.47,44.47,0,0,1-.25-4.55c0-2.89-.66-4.91-1.87-6.05s-3.26-1.71-6.13-1.71H478.85v14.51h-3.42Zm3.42,15.35h14.46a10.85,10.85,0,0,0,2.75-.33,6.54,6.54,0,0,0,2.27-1,4.67,4.67,0,0,0,1.55-2,7.63,7.63,0,0,0,.55-3.07,6.28,6.28,0,0,0-.6-2.91,4.67,4.67,0,0,0-1.55-1.78,5.91,5.91,0,0,0-2.15-.85,12.67,12.67,0,0,0-2.49-.23H478.85Z"/><rect class="cls-5" x="510.35" y="239.22" width="3.42" height="33"/><path class="cls-5" d="M553.35,259.65a14.72,14.72,0,0,1-1.53,5.22,14,14,0,0,1-3.37,4.28,15.91,15.91,0,0,1-5,2.86,18.69,18.69,0,0,1-6.38,1,20.77,20.77,0,0,1-7.23-1.2,15,15,0,0,1-9.1-9,19.81,19.81,0,0,1-1.23-7.14,19.59,19.59,0,0,1,1-6,16.87,16.87,0,0,1,3.1-5.61,14.94,14.94,0,0,1,5.52-4.14,19.08,19.08,0,0,1,8-1.55,22.45,22.45,0,0,1,5.5.67,17,17,0,0,1,5,2.1,12.17,12.17,0,0,1,3.74,3.75,12.87,12.87,0,0,1,1.85,5.45h-3.42a9.87,9.87,0,0,0-1.53-4,9.47,9.47,0,0,0-2.86-2.78,13.18,13.18,0,0,0-3.81-1.57,18.77,18.77,0,0,0-4.42-.51q-6.37,0-10.12,3.61t-3.74,10.58a18.33,18.33,0,0,0,.78,5.41,13.1,13.1,0,0,0,2.45,4.53,11.41,11.41,0,0,0,4.32,3.12,16.17,16.17,0,0,0,6.31,1.13q5.69,0,8.83-2.68a12.71,12.71,0,0,0,4.07-7.58Z"/><polygon class="cls-5" points="558.73 239.22 562.15 239.22 562.15 253.18 586 253.18 586 239.22 589.42 239.22 589.42 272.22 586 272.22 586 256.32 562.15 256.32 562.15 272.22 558.73 272.22 558.73 239.22"/><path class="cls-5" d="M596.36,248.23a15.16,15.16,0,0,1,3.95-5.47,16.69,16.69,0,0,1,5.73-3.28,21.85,21.85,0,0,1,13.63,0,16.69,16.69,0,0,1,5.73,3.28,15.16,15.16,0,0,1,4,5.47,20.2,20.2,0,0,1,0,15,15.07,15.07,0,0,1-4,5.47,16.87,16.87,0,0,1-5.73,3.29A22,22,0,0,1,606,272a16.87,16.87,0,0,1-5.73-3.29,15.07,15.07,0,0,1-3.95-5.47,20.2,20.2,0,0,1,0-15m3.42,13.8a12,12,0,0,0,3.16,4.44,13.62,13.62,0,0,0,4.55,2.59,17,17,0,0,0,5.36.85,17.23,17.23,0,0,0,5.36-.83,13.08,13.08,0,0,0,4.56-2.59,12.16,12.16,0,0,0,3.16-4.46,17.74,17.74,0,0,0,0-12.62,12.16,12.16,0,0,0-3.16-4.46,12.9,12.9,0,0,0-4.56-2.58,17.52,17.52,0,0,0-10.72,0,12.94,12.94,0,0,0-4.55,2.58,12.16,12.16,0,0,0-3.16,4.46,17.74,17.74,0,0,0,0,12.62"/><path class="cls-5" d="M636.54,239.22h18a18.63,18.63,0,0,1,4.16.44,9.94,9.94,0,0,1,3.37,1.46,7.06,7.06,0,0,1,2.33,2.77,9.64,9.64,0,0,1,.86,4.25,8.21,8.21,0,0,1-1.69,5,7.89,7.89,0,0,1-4.78,3v.09q3.33.51,4.5,2.63a15.15,15.15,0,0,1,1.37,6.52c0,.59.07,1.23.11,1.92s.12,1.39.21,2.1a12.24,12.24,0,0,0,.35,1.8,2.41,2.41,0,0,0,.48,1H662.1a4.76,4.76,0,0,1-.63-2.2,44.47,44.47,0,0,1-.25-4.55c0-2.89-.66-4.91-1.87-6.05s-3.26-1.71-6.13-1.71H640v14.51h-3.42ZM640,254.57h14.46a11,11,0,0,0,2.76-.33,6.5,6.5,0,0,0,2.26-1,4.67,4.67,0,0,0,1.55-2,7.63,7.63,0,0,0,.55-3.07,6.28,6.28,0,0,0-.6-2.91,4.67,4.67,0,0,0-1.55-1.78,5.91,5.91,0,0,0-2.15-.85,12.67,12.67,0,0,0-2.49-.23H640Z"/><path class="cls-5" d="M370.68,290.71h-2.35v10.67h-1.45V290.71h-2v-1.22h2v-1.08A8.77,8.77,0,0,1,367,287a2.91,2.91,0,0,1,.44-1.11,2.18,2.18,0,0,1,.89-.71,3.53,3.53,0,0,1,1.44-.26,5.47,5.47,0,0,1,.6,0c.18,0,.39,0,.62.07v1.24l-.55-.08-.51,0a1.9,1.9,0,0,0-.92.18,1.19,1.19,0,0,0-.47.5,2,2,0,0,0-.18.72c0,.28,0,.58,0,.9v1h2.35Z"/><path class="cls-5" d="M379.06,290a5.37,5.37,0,0,1,1.77,1.28,5.63,5.63,0,0,1,1.08,1.9,7,7,0,0,1,.37,2.29,6.87,6.87,0,0,1-.37,2.29,5.69,5.69,0,0,1-1.08,1.89,5.1,5.1,0,0,1-1.77,1.28,6.27,6.27,0,0,1-4.81,0,5.1,5.1,0,0,1-1.77-1.28,5.52,5.52,0,0,1-1.08-1.89,6.87,6.87,0,0,1-.37-2.29,7,7,0,0,1,.37-2.29,5.47,5.47,0,0,1,1.08-1.9,5.37,5.37,0,0,1,1.77-1.28,6.27,6.27,0,0,1,4.81,0m-4.23,1.15a3.9,3.9,0,0,0-1.3,1.08,4.61,4.61,0,0,0-.78,1.51,5.63,5.63,0,0,0-.27,1.73,5.73,5.73,0,0,0,.27,1.73,4.71,4.71,0,0,0,.78,1.51,4,4,0,0,0,1.3,1.07,4.27,4.27,0,0,0,3.65,0,4,4,0,0,0,1.3-1.07,4.92,4.92,0,0,0,.78-1.51,5.73,5.73,0,0,0,.27-1.73,5.63,5.63,0,0,0-.27-1.73,4.81,4.81,0,0,0-.78-1.51,3.9,3.9,0,0,0-1.3-1.08,4.27,4.27,0,0,0-3.65,0"/><path class="cls-5" d="M384.46,289.49h1.33v2.79h0a4.13,4.13,0,0,1,1.72-2.16,5,5,0,0,1,2.77-.63v1.45a4.47,4.47,0,0,0-1.79.26,4.11,4.11,0,0,0-1.4.88,3.92,3.92,0,0,0-.91,1.36,4.59,4.59,0,0,0-.32,1.7v6.25h-1.45Z"/><path class="cls-5" d="M400.43,289.49h2.42v1.22h-2.42v7.91a2.51,2.51,0,0,0,.2,1.1c.13.27.45.41,1,.44a10.31,10.31,0,0,0,1.24-.07v1.25l-.64,0c-.22,0-.43,0-.65,0a2.91,2.91,0,0,1-2-.57,2.85,2.85,0,0,1-.55-2.08v-8H396.9v-1.22H399v-3.57h1.45Z"/><path class="cls-5" d="M404.68,284.92h1.45v7h.05a3.25,3.25,0,0,1,.58-1,3.81,3.81,0,0,1,.89-.76,4.62,4.62,0,0,1,1.11-.49,4.55,4.55,0,0,1,1.22-.17,6.06,6.06,0,0,1,2.09.31,3.32,3.32,0,0,1,1.34.89,3.28,3.28,0,0,1,.72,1.4,7.55,7.55,0,0,1,.21,1.86v7.43h-1.46V294.2a6,6,0,0,0-.14-1.38,2.82,2.82,0,0,0-.48-1.1,2.29,2.29,0,0,0-.93-.74,3.51,3.51,0,0,0-1.47-.27,3.79,3.79,0,0,0-1.55.3,3.51,3.51,0,0,0-1.17.83,3.47,3.47,0,0,0-.73,1.25,5,5,0,0,0-.28,1.57v6.72h-1.45Z"/><path class="cls-5" d="M417.91,295.83a5.32,5.32,0,0,0,.23,1.51,4.43,4.43,0,0,0,.7,1.39,3.6,3.6,0,0,0,1.21,1,3.66,3.66,0,0,0,1.78.4,3.51,3.51,0,0,0,2.49-.84,4.4,4.4,0,0,0,1.25-2.2H427a5.87,5.87,0,0,1-1.7,3.15,5,5,0,0,1-3.49,1.12,5.65,5.65,0,0,1-2.44-.48,4.59,4.59,0,0,1-1.66-1.3,5.58,5.58,0,0,1-1-1.9,8.35,8.35,0,0,1-.31-2.27,8,8,0,0,1,.31-2.18,5.82,5.82,0,0,1,1-1.91,4.71,4.71,0,0,1,1.66-1.35,5.36,5.36,0,0,1,2.44-.51,5.07,5.07,0,0,1,2.45.55,4.74,4.74,0,0,1,1.64,1.43,5.6,5.6,0,0,1,.91,2,8,8,0,0,1,.23,2.33Zm7.7-1.22a4.22,4.22,0,0,0-.29-1.46A3.69,3.69,0,0,0,423.4,291a3.58,3.58,0,0,0-1.57-.33,3.57,3.57,0,0,0-2.76,1.2,4,4,0,0,0-.78,1.25,5.64,5.64,0,0,0-.38,1.45Z"/><rect class="cls-5" x="435.82" y="284.93" width="1.57" height="16.46"/><path class="cls-5" d="M440.46,289.49h1.46v2.05h0a3.61,3.61,0,0,1,1.48-1.74,2,2,0,0,1,1.11-.31h1.22a6,6,0,0,1,2.08.31,3.36,3.36,0,0,1,1.35.89,3.22,3.22,0,0,1,.72,1.4,8.1,8.1,0,0,1,.2,1.86v7.44h-1.45v-7.2a6.62,6.62,0,0,0-.14-1.37,2.82,2.82,0,0,0-.48-1.1,2.29,2.29,0,0,0-.93-.74,3.57,3.57,0,0,0-1.47-.27,3.88,3.88,0,0,0-1.56.3,3.47,3.47,0,0,0-1.16.83,3.64,3.64,0,0,0-.74,1.25,5,5,0,0,0-.27,1.57v6.73h-1.46Z"/><path class="cls-5" d="M454.85,289.49h2.42v1.22h-2.42v7.91a2.51,2.51,0,0,0,.2,1.1c.13.27.46.41,1,.44a10.31,10.31,0,0,0,1.24-.07v1.25l-.64,0c-.22,0-.43,0-.65,0a2.15,2.15,0,0,1-2.58-2.65v-8h-2.07v-1.22h2.07v-3.57h1.45Z"/><path class="cls-5" d="M459.62,295.83a5,5,0,0,0,.23,1.51,4.21,4.21,0,0,0,.69,1.39,3.56,3.56,0,0,0,3,1.43,3.51,3.51,0,0,0,2.49-.84,4.4,4.4,0,0,0,1.25-2.2h1.45a5.93,5.93,0,0,1-1.69,3.15,5.07,5.07,0,0,1-3.5,1.12,5.68,5.68,0,0,1-2.44-.48,4.59,4.59,0,0,1-1.66-1.3,5.58,5.58,0,0,1-1-1.9,8.35,8.35,0,0,1-.31-2.27,8,8,0,0,1,.31-2.18,5.82,5.82,0,0,1,1-1.91,4.71,4.71,0,0,1,1.66-1.35,5.39,5.39,0,0,1,2.44-.51A5,5,0,0,1,466,290a4.86,4.86,0,0,1,1.65,1.43,6,6,0,0,1,.91,2,8.7,8.7,0,0,1,.23,2.33Zm7.69-1.22a4.45,4.45,0,0,0-.28-1.46,4,4,0,0,0-.75-1.24,3.81,3.81,0,0,0-1.18-.87,3.58,3.58,0,0,0-1.57-.33,3.71,3.71,0,0,0-1.59.33,3.65,3.65,0,0,0-1.17.87,4.17,4.17,0,0,0-.77,1.25,5.26,5.26,0,0,0-.38,1.45Z"/><path class="cls-5" d="M470.82,289.49h1.34v2.79h0a4.17,4.17,0,0,1,1.71-2.16,5,5,0,0,1,2.78-.63v1.45a4.54,4.54,0,0,0-1.8.26,4.17,4.17,0,0,0-1.39.88,3.79,3.79,0,0,0-.91,1.36,4.4,4.4,0,0,0-.32,1.7v6.25h-1.46Z"/><path class="cls-5" d="M478.17,289.49h1.45v2.05h.05a3.42,3.42,0,0,1,.59-1,3.57,3.57,0,0,1,.88-.76,2.07,2.07,0,0,1,1.11-.31h1.22a6,6,0,0,1,2.09.31,3.36,3.36,0,0,1,1.35.89,3.32,3.32,0,0,1,.71,1.4,7.55,7.55,0,0,1,.21,1.86v7.44h-1.45v-7.2a6.62,6.62,0,0,0-.14-1.37,2.83,2.83,0,0,0-.49-1.1,2.29,2.29,0,0,0-.93-.74,3.49,3.49,0,0,0-1.46-.27,3.81,3.81,0,0,0-1.56.3,3.49,3.49,0,0,0-1.9,2.08,5.27,5.27,0,0,0-.28,1.57v6.73h-1.45Z"/><path class="cls-5" d="M491.41,295.83a5,5,0,0,0,.23,1.51,4.21,4.21,0,0,0,.69,1.39,3.6,3.6,0,0,0,1.21,1,3.68,3.68,0,0,0,1.78.4,3.52,3.52,0,0,0,2.5-.84,4.46,4.46,0,0,0,1.24-2.2h1.45a5.86,5.86,0,0,1-1.69,3.15,5.07,5.07,0,0,1-3.5,1.12,5.68,5.68,0,0,1-2.44-.48,4.67,4.67,0,0,1-1.66-1.3,5.39,5.39,0,0,1-1-1.9,8,8,0,0,1-.32-2.27,7.67,7.67,0,0,1,.32-2.18,5.61,5.61,0,0,1,1-1.91,4.8,4.8,0,0,1,1.66-1.35,5.39,5.39,0,0,1,2.44-.51,5,5,0,0,1,2.45.55,4.86,4.86,0,0,1,1.65,1.43,6,6,0,0,1,.91,2,8.7,8.7,0,0,1,.23,2.33Zm7.7-1.22a4.74,4.74,0,0,0-.29-1.46,4,4,0,0,0-.75-1.24,3.7,3.7,0,0,0-1.18-.87,3.58,3.58,0,0,0-1.57-.33,3.57,3.57,0,0,0-2.76,1.2,4.17,4.17,0,0,0-.77,1.25,5.26,5.26,0,0,0-.38,1.45Z"/><path class="cls-5" d="M504.53,289.49H507v1.22h-2.42v7.91a2.53,2.53,0,0,0,.19,1.1c.13.27.46.41,1,.44a10.48,10.48,0,0,0,1.25-.07v1.25l-.65,0c-.21,0-.43,0-.64,0a2.9,2.9,0,0,1-2-.57,2.85,2.85,0,0,1-.56-2.08v-8H501v-1.22h2.07v-3.57h1.46Z"/><path class="cls-5" d="M522.89,290a5.23,5.23,0,0,1,1.76,1.28,5.49,5.49,0,0,1,1.09,1.9,7.27,7.27,0,0,1,.36,2.29,7.14,7.14,0,0,1-.36,2.29,5.54,5.54,0,0,1-1.09,1.89,5,5,0,0,1-1.76,1.28,6.29,6.29,0,0,1-4.82,0,5,5,0,0,1-1.76-1.28,5.54,5.54,0,0,1-1.09-1.89,7.14,7.14,0,0,1-.36-2.29,7.27,7.27,0,0,1,.36-2.29,5.49,5.49,0,0,1,1.09-1.9,5.23,5.23,0,0,1,1.76-1.28,6.29,6.29,0,0,1,4.82,0m-4.23,1.15a3.94,3.94,0,0,0-1.31,1.08,4.81,4.81,0,0,0-.78,1.51,5.63,5.63,0,0,0-.26,1.73,5.72,5.72,0,0,0,.26,1.73,4.92,4.92,0,0,0,.78,1.51,4,4,0,0,0,1.31,1.07,4.24,4.24,0,0,0,3.64,0,3.89,3.89,0,0,0,1.3-1.07,4.73,4.73,0,0,0,.79-1.51,6,6,0,0,0,.26-1.73,5.94,5.94,0,0,0-.26-1.73,4.63,4.63,0,0,0-.79-1.51,3.8,3.8,0,0,0-1.3-1.08,4.24,4.24,0,0,0-3.64,0"/><path class="cls-5" d="M532.45,290.71h-2.36v10.67h-1.45V290.71h-2v-1.22h2v-1.08a7.72,7.72,0,0,1,.12-1.41,2.75,2.75,0,0,1,.44-1.11,2.12,2.12,0,0,1,.89-.71,3.47,3.47,0,0,1,1.44-.26,5.41,5.41,0,0,1,.59,0c.19,0,.4,0,.63.07v1.24l-.56-.08a4.19,4.19,0,0,0-.5,0,1.9,1.9,0,0,0-.92.18,1.15,1.15,0,0,0-.48.5,1.78,1.78,0,0,0-.17.72q0,.42,0,.9v1h2.36Z"/><polygon class="cls-5" points="540.52 284.93 542.08 284.93 542.08 300.05 551.3 300.05 551.3 301.38 540.52 301.38 540.52 284.93"/><path class="cls-5" d="M552.75,284.93h1.45v2.32h-1.45Zm0,4.56h1.45v11.9h-1.45Z"/><polygon class="cls-5" points="555.72 289.49 557.33 289.49 561.06 299.93 561.11 299.93 564.8 289.49 566.3 289.49 561.85 301.38 560.3 301.38 555.72 289.49"/><path class="cls-5" d="M567.81,284.93h1.45v2.32h-1.45Zm0,4.56h1.45v11.9h-1.45Z"/><path class="cls-5" d="M572,289.49h1.45v2.05h0a3.66,3.66,0,0,1,.59-1,3.81,3.81,0,0,1,.89-.76,2.07,2.07,0,0,1,1.11-.31h1.22a6,6,0,0,1,2.08.31,3.15,3.15,0,0,1,2.07,2.29,7.58,7.58,0,0,1,.2,1.86v7.44h-1.45v-7.2a6.64,6.64,0,0,0-.13-1.37,3,3,0,0,0-.49-1.1,2.29,2.29,0,0,0-.93-.74,3.54,3.54,0,0,0-1.47-.27,3.79,3.79,0,0,0-1.55.3,3.41,3.41,0,0,0-1.17.83,3.62,3.62,0,0,0-.73,1.25,5,5,0,0,0-.28,1.57v6.73H572Z"/><path class="cls-5" d="M594.46,300.19a9,9,0,0,1-.29,2.35,4.47,4.47,0,0,1-.91,1.76,4,4,0,0,1-1.62,1.11,7.06,7.06,0,0,1-2.46.38,7.29,7.29,0,0,1-1.75-.21,4.78,4.78,0,0,1-1.53-.65,3.74,3.74,0,0,1-1.13-1.11,3.42,3.42,0,0,1-.52-1.63h1.45a2.64,2.64,0,0,0,.45,1.12,2.54,2.54,0,0,0,.81.72,3.49,3.49,0,0,0,1,.41,5.67,5.67,0,0,0,1.17.13,3.67,3.67,0,0,0,2.93-1.05,4.62,4.62,0,0,0,.9-3.1V298.8h0a4.27,4.27,0,0,1-1.5,1.78,4,4,0,0,1-2.28.67,6,6,0,0,1-2.44-.46,4.45,4.45,0,0,1-1.67-1.27,5.12,5.12,0,0,1-1-1.89,8.67,8.67,0,0,1-.3-2.32,7,7,0,0,1,.36-2.25,5.44,5.44,0,0,1,1-1.86,4.94,4.94,0,0,1,1.69-1.25,5.35,5.35,0,0,1,2.29-.46,5,5,0,0,1,2.33.53,3.06,3.06,0,0,1,1.45,1.52h0v-2.05h1.45Zm-3.62-.55a3.62,3.62,0,0,0,1.2-1,4.6,4.6,0,0,0,.73-1.45,6,6,0,0,0,.24-1.69,6.92,6.92,0,0,0-.21-1.69,4.6,4.6,0,0,0-.67-1.53,3.55,3.55,0,0,0-1.19-1.12,3.45,3.45,0,0,0-1.76-.42,3.62,3.62,0,0,0-1.77.41,3.89,3.89,0,0,0-1.23,1.08,4.6,4.6,0,0,0-.7,1.52,7.36,7.36,0,0,0-.22,1.75,6.38,6.38,0,0,0,.23,1.69,4,4,0,0,0,.72,1.45,3.59,3.59,0,0,0,1.22,1,3.83,3.83,0,0,0,1.75.39,3.51,3.51,0,0,0,1.66-.39"/><polygon class="cls-5" points="600.98 284.93 614.03 284.93 614.03 286.26 608.29 286.26 608.29 301.38 606.73 301.38 606.73 286.26 600.98 286.26 600.98 284.93"/><path class="cls-5" d="M615.44,284.92h1.46v7h0a3.29,3.29,0,0,1,.59-1,3.62,3.62,0,0,1,.89-.76,4.55,4.55,0,0,1,1.1-.49,4.6,4.6,0,0,1,1.22-.17,6,6,0,0,1,2.09.31,3.36,3.36,0,0,1,1.35.89,3.16,3.16,0,0,1,.71,1.4,7.55,7.55,0,0,1,.21,1.86v7.43h-1.45V294.2a6.65,6.65,0,0,0-.14-1.38,2.82,2.82,0,0,0-.48-1.1,2.32,2.32,0,0,0-.94-.74,3.49,3.49,0,0,0-1.46-.27,3.88,3.88,0,0,0-1.56.3,3.47,3.47,0,0,0-1.16.83,3.64,3.64,0,0,0-.74,1.25,5,5,0,0,0-.27,1.57v6.72h-1.46Z"/><path class="cls-5" d="M627.85,284.93h1.46v2.32h-1.46Zm0,4.56h1.46v11.9h-1.46Z"/><path class="cls-5" d="M632.07,289.49h1.46v2.05h0a3.42,3.42,0,0,1,.59-1,3.62,3.62,0,0,1,.89-.76,2,2,0,0,1,1.1-.31h1.22a6,6,0,0,1,2.09.31,3.36,3.36,0,0,1,1.35.89,3.1,3.1,0,0,1,.71,1.4,7.55,7.55,0,0,1,.21,1.86v7.44h-1.45v-7.2a6.62,6.62,0,0,0-.14-1.37,2.82,2.82,0,0,0-.48-1.1,2.39,2.39,0,0,0-.94-.74,3.49,3.49,0,0,0-1.46-.27,3.88,3.88,0,0,0-1.56.3,3.47,3.47,0,0,0-1.16.83,3.64,3.64,0,0,0-.74,1.25,5,5,0,0,0-.27,1.57v6.73h-1.46Z"/><path class="cls-5" d="M654.5,300.19a9,9,0,0,1-.28,2.35,4.75,4.75,0,0,1-.91,1.76,4.08,4.08,0,0,1-1.63,1.11,7,7,0,0,1-2.45.38,7.37,7.37,0,0,1-1.76-.21,4.88,4.88,0,0,1-1.53-.65,3.86,3.86,0,0,1-1.13-1.11,3.42,3.42,0,0,1-.52-1.63h1.46a2.41,2.41,0,0,0,.45,1.12,2.61,2.61,0,0,0,.8.72,3.59,3.59,0,0,0,1,.41,5.76,5.76,0,0,0,1.18.13,3.65,3.65,0,0,0,2.92-1.05,4.62,4.62,0,0,0,.9-3.1V298.8h0a4.27,4.27,0,0,1-1.5,1.78,4,4,0,0,1-2.28.67,6,6,0,0,1-2.45-.46,4.61,4.61,0,0,1-1.67-1.27,5.12,5.12,0,0,1-1-1.89,8.68,8.68,0,0,1-.29-2.32,7,7,0,0,1,.35-2.25,5.63,5.63,0,0,1,1-1.86,4.9,4.9,0,0,1,1.68-1.25,5.43,5.43,0,0,1,2.3-.46,5,5,0,0,1,2.32.53,3.08,3.08,0,0,1,1.46,1.52h0v-2.05h1.45Zm-3.61-.55a3.68,3.68,0,0,0,1.19-1,4.22,4.22,0,0,0,.73-1.45,6,6,0,0,0,.24-1.69,7.43,7.43,0,0,0-.2-1.69,4.81,4.81,0,0,0-.67-1.53,3.64,3.64,0,0,0-1.19-1.12,3.45,3.45,0,0,0-1.76-.42,3.66,3.66,0,0,0-1.78.41,3.85,3.85,0,0,0-1.22,1.08,4.41,4.41,0,0,0-.7,1.52,6.88,6.88,0,0,0-.22,1.75,6.38,6.38,0,0,0,.23,1.69,4.18,4.18,0,0,0,.71,1.45,3.59,3.59,0,0,0,1.22,1,3.87,3.87,0,0,0,1.76.39,3.54,3.54,0,0,0,1.66-.39"/><path class="cls-5" d="M664.41,293a2.79,2.79,0,0,0-.27-1.16,2.3,2.3,0,0,0-.69-.82,2.94,2.94,0,0,0-1-.48,5,5,0,0,0-1.18-.14,4.73,4.73,0,0,0-1,.1,2.78,2.78,0,0,0-.91.35,1.93,1.93,0,0,0-.67.63,1.73,1.73,0,0,0-.25,1,1.39,1.39,0,0,0,.24.82,2.18,2.18,0,0,0,.61.56,4.3,4.3,0,0,0,.81.38c.29.1.56.18.8.24l1.94.44a5,5,0,0,1,1.23.34,4,4,0,0,1,1.09.63,3.09,3.09,0,0,1,.77,1,2.9,2.9,0,0,1,.3,1.36,3,3,0,0,1-.44,1.64,3.39,3.39,0,0,1-1.12,1.11,4.73,4.73,0,0,1-1.53.62,7.55,7.55,0,0,1-1.68.2,5.39,5.39,0,0,1-3.4-1,4.26,4.26,0,0,1-1.49-3.19h1.45a2.88,2.88,0,0,0,1.08,2.22,3.87,3.87,0,0,0,2.43.75,5.32,5.32,0,0,0,1.08-.12,3.21,3.21,0,0,0,1.06-.39,2.43,2.43,0,0,0,.79-.7,1.74,1.74,0,0,0,.32-1.05,1.77,1.77,0,0,0-.22-.88,2,2,0,0,0-.59-.61,3.84,3.84,0,0,0-.84-.4c-.32-.11-.63-.2-1-.28l-1.87-.41a12.59,12.59,0,0,1-1.31-.43,4.11,4.11,0,0,1-1-.6,2.57,2.57,0,0,1-.7-.87,2.92,2.92,0,0,1-.25-1.28,2.86,2.86,0,0,1,.4-1.55,3.26,3.26,0,0,1,1-1,4.82,4.82,0,0,1,1.44-.57,7.18,7.18,0,0,1,1.58-.19,6,6,0,0,1,1.67.23,3.94,3.94,0,0,1,1.36.72,3.46,3.46,0,0,1,.93,1.2,4.42,4.42,0,0,1,.4,1.68Z"/></g></svg>