<svg xmlns="http://www.w3.org/2000/svg" viewBox="0 0 256 256"><defs><style>.cls-1{fill:#fece64;}.cls-2{fill:#68bcb9;}.cls-3{fill:#047b9b;}</style></defs><title>icon_epi2me_icon</title><g id="Layer_5" data-name="Layer 5"><path id="path4898" class="cls-1" d="M130,159.34H53a9,9,0,0,1-9-9V105.67a9,9,0,0,1,9-9h77a9,9,0,0,1,9,9v44.49a9.06,9.06,0,0,1-8.93,9.19H130"/><path id="path4902" class="cls-2" d="M203,73.49H53a9,9,0,0,1-9-9V19.82a9,9,0,0,1,9-9H203a9,9,0,0,1,9,9V64.49a9,9,0,0,1-9,9"/><path id="path4906" class="cls-3" d="M203,245.19H53a9,9,0,0,1-9-9V191.51a9,9,0,0,1,9-9H203a9,9,0,0,1,9,9v44.67a9,9,0,0,1-9,9"/></g></svg>