<svg xmlns="http://www.w3.org/2000/svg" viewBox="0 0 256 256"><defs><style>.cls-1{fill:#68bbb9;}.cls-2{fill:#fece62;}.cls-3{fill:#007a9a;}</style></defs><title>icon_metrichor_icon</title><g id="Layer_4" data-name="Layer 4"><path class="cls-1" d="M201.9,132.1a247.68,247.68,0,0,0-14.8-33.2A11.59,11.59,0,0,0,174.57,93c-12.84,2.53-28.12,4.19-47.48,4.19-18.85,0-33.3-1.51-45.78-4a11.53,11.53,0,0,0-12.5,5.9A247.58,247.58,0,0,0,54.13,132a11.58,11.58,0,0,0,7.69,15c14.69,4.16,38.31,8.4,65.27,8.4,27.84,0,52.15-4.12,67.08-8.31A11.59,11.59,0,0,0,201.9,132.1Z"/><path class="cls-2" d="M153.39,74.88A11.56,11.56,0,0,0,161.8,57c-17.75-26.53-33.79-46-33.79-46h0S111.89,30.5,94.09,57.11A11.56,11.56,0,0,0,102.52,75c7.23.71,15.29,1.09,24.57,1.09A258.76,258.76,0,0,0,153.39,74.88Z"/><polygon class="cls-3" points="128.01 245.07 128 245.07 127.99 245.07 128.01 245.07"/><path class="cls-3" d="M206.56,182.86a11.59,11.59,0,0,0-14.05-13.6c-18.56,4.42-42.43,7.26-65.42,7.26a287.3,287.3,0,0,1-63.59-7.27,11.59,11.59,0,0,0-14.06,13.6c7.61,38,38.64,62.22,78.56,62.22S198.94,220.84,206.56,182.86Z"/></g></svg>