<svg xmlns="http://www.w3.org/2000/svg" viewBox="0 0 613.82 256"><defs><style>.cls-1{fill:#676c72;}.cls-2{fill:#68bbb9;}.cls-3{fill:#fece62;}.cls-4{fill:#007a9a;}</style></defs><title>icon_metrichor_logo</title><g id="Layer_3" data-name="Layer 3"><path class="cls-1" d="M113.7,190.89h8.15v55.46H116.1V198.43H116L91.48,246.35H86.2l-24.39-48h-.15v48H55.91V190.89H64.3L89,239.13Z"/><path class="cls-1" d="M134,190.89h44.11v5.28H139.78V215h37v5.28h-37v20.82h39v5.28H134Z"/><path class="cls-1" d="M205,196.17H183.26v-5.28H232.5v5.28H210.75v50.18H205Z"/><path class="cls-1" d="M238.4,190.89h30.22a31.17,31.17,0,0,1,7,.74,16.46,16.46,0,0,1,5.67,2.45,11.83,11.83,0,0,1,3.92,4.66,16.17,16.17,0,0,1,1.44,7.14,13.85,13.85,0,0,1-2.84,8.47,13.22,13.22,0,0,1-8,5v.16q5.6.86,7.57,4.42t2.29,10.95c.06,1,.12,2.06.2,3.23s.19,2.34.35,3.53a21.57,21.57,0,0,0,.58,3,4,4,0,0,0,.82,1.71h-6.22a8.21,8.21,0,0,1-1.05-3.69,76.39,76.39,0,0,1-.42-7.65q-.08-7.31-3.15-10.17T266.44,222H244.15v24.39H238.4Zm5.75,25.79h24.31a18.77,18.77,0,0,0,4.62-.54,11.36,11.36,0,0,0,3.81-1.75,7.92,7.92,0,0,0,2.6-3.34,12.91,12.91,0,0,0,.93-5.17,10.61,10.61,0,0,0-1-4.89,7.8,7.8,0,0,0-2.6-3,9.92,9.92,0,0,0-3.61-1.44,22.16,22.16,0,0,0-4.2-.39H244.15Z"/><path class="cls-1" d="M297.08,190.89h5.75v55.46h-5.75Z"/><path class="cls-1" d="M369.35,225.22a24.46,24.46,0,0,1-2.56,8.78,23.3,23.3,0,0,1-5.67,7.18,26.29,26.29,0,0,1-8.47,4.82,31.51,31.51,0,0,1-10.72,1.75,35,35,0,0,1-12.15-2,25.28,25.28,0,0,1-15.3-15.11,33.5,33.5,0,0,1-2.06-12,33,33,0,0,1,1.63-10.13,28.49,28.49,0,0,1,5.2-9.44,25.42,25.42,0,0,1,9.29-7,31.92,31.92,0,0,1,13.39-2.61,38.1,38.1,0,0,1,9.25,1.13,28.17,28.17,0,0,1,8.31,3.54,20.3,20.3,0,0,1,6.29,6.29,21.42,21.42,0,0,1,3.11,9.16h-5.75a16.73,16.73,0,0,0-2.56-6.68,16,16,0,0,0-4.82-4.66,21.75,21.75,0,0,0-6.41-2.64,31.42,31.42,0,0,0-7.42-.85q-10.71,0-17,6.05t-6.29,17.79a30.65,30.65,0,0,0,1.32,9.09,21.7,21.7,0,0,0,4.12,7.61,18.89,18.89,0,0,0,7.26,5.24,26.9,26.9,0,0,0,10.6,1.91q9.56,0,14.84-4.51t6.83-12.74Z"/><path class="cls-1" d="M378.41,190.89h5.75v23.46h40.07V190.89H430v55.46h-5.75V219.63H384.16v26.72h-5.75Z"/><path class="cls-1" d="M441.64,206a25.63,25.63,0,0,1,6.64-9.21,28.47,28.47,0,0,1,9.63-5.51,36.77,36.77,0,0,1,22.91,0,28.47,28.47,0,0,1,9.63,5.51,25.51,25.51,0,0,1,6.64,9.21,34,34,0,0,1,0,25.16,25.42,25.42,0,0,1-6.64,9.21,28.14,28.14,0,0,1-9.63,5.51,36.77,36.77,0,0,1-22.91,0,28.14,28.14,0,0,1-9.63-5.51,25.54,25.54,0,0,1-6.64-9.21,34,34,0,0,1,0-25.16Zm5.75,23.18a19.92,19.92,0,0,0,5.32,7.46,22.69,22.69,0,0,0,7.65,4.35,28,28,0,0,0,9,1.44,28.89,28.89,0,0,0,9-1.4,21.9,21.9,0,0,0,7.65-4.35,20.55,20.55,0,0,0,5.32-7.5,29.93,29.93,0,0,0,0-21.2,20.55,20.55,0,0,0-5.32-7.5,22.22,22.22,0,0,0-7.65-4.35,29.9,29.9,0,0,0-18,0,22,22,0,0,0-7.65,4.35,20.32,20.32,0,0,0-5.32,7.5,29.79,29.79,0,0,0,0,21.2Z"/><path class="cls-1" d="M509.17,190.89h30.22a31.17,31.17,0,0,1,7,.74,16.46,16.46,0,0,1,5.67,2.45,11.83,11.83,0,0,1,3.92,4.66,16.17,16.17,0,0,1,1.44,7.14,13.85,13.85,0,0,1-2.84,8.47,13.22,13.22,0,0,1-8,5v.16q5.6.86,7.57,4.42t2.3,10.95c.05,1,.11,2.06.19,3.23s.19,2.34.35,3.53a21.57,21.57,0,0,0,.58,3,4,4,0,0,0,.82,1.71h-6.22a8.1,8.1,0,0,1-1-3.69,73,73,0,0,1-.43-7.65q-.07-7.31-3.15-10.17T537.21,222H514.92v24.39h-5.75Zm5.75,25.79h24.31a18.77,18.77,0,0,0,4.62-.54,11.36,11.36,0,0,0,3.81-1.75,7.92,7.92,0,0,0,2.6-3.34,12.91,12.91,0,0,0,.93-5.17,10.61,10.61,0,0,0-1-4.89,7.8,7.8,0,0,0-2.6-3,9.92,9.92,0,0,0-3.61-1.44,22.16,22.16,0,0,0-4.2-.39H514.92Z"/><path class="cls-2" d="M345.3,70.85a128.28,128.28,0,0,0-7.65-17.15,6,6,0,0,0-6.47-3.05,125.27,125.27,0,0,1-24.53,2.17A118.42,118.42,0,0,1,283,50.74a6,6,0,0,0-6.46,3,126.23,126.23,0,0,0-7.58,17,6,6,0,0,0,4,7.75,129.15,129.15,0,0,0,33.71,4.34,134.86,134.86,0,0,0,34.66-4.29A6,6,0,0,0,345.3,70.85Z"/><path class="cls-3" d="M320.24,41.29A6,6,0,0,0,324.59,32c-9.17-13.71-17.46-23.78-17.46-23.78h0s-8.32,10.11-17.51,23.86A6,6,0,0,0,294,41.36c3.73.37,7.9.57,12.69.57A133.22,133.22,0,0,0,320.24,41.29Z"/><polygon class="cls-4" points="307.13 129.2 307.12 129.2 307.12 129.2 307.13 129.2"/><path class="cls-4" d="M347.71,97.07a6,6,0,0,0-7.26-7,153.23,153.23,0,0,1-33.8,3.75A148.42,148.42,0,0,1,273.81,90a6,6,0,0,0-7.27,7c3.93,19.62,20,32.14,40.58,32.14S343.77,116.68,347.71,97.07Z"/></g></svg>